<?xml version="1.0" standalone="no"?>
<!DOCTYPE svg PUBLIC "-//W3C//DTD SVG 20010904//EN"
 "http://www.w3.org/TR/2001/REC-SVG-20010904/DTD/svg10.dtd">
<svg version="1.0" xmlns="http://www.w3.org/2000/svg"
 width="30.000000pt" height="30.000000pt" viewBox="0 0 30.000000 30.000000"
 preserveAspectRatio="xMidYMid meet">

<g transform="translate(0.000000,30.000000) scale(0.100000,-0.100000)"
fill="#000000" stroke="none">
<path d="M27 244 c-4 -4 -7 -44 -7 -90 0 -54 -4 -84 -12 -86 -6 -2 -8 -10 -4
-16 10 -16 282 -17 292 -1 3 6 2 14 -4 18 -6 4 -12 44 -14 91 l-3 85 -121 3
c-66 1 -123 -1 -127 -4z m233 -89 l0 -75 -110 0 -110 0 0 75 0 75 110 0 110 0
0 -75z"/>
</g>
</svg>
